<svg height="512" viewBox="0 0 64 64" width="512" xmlns="http://www.w3.org/2000/svg"><g id="auto_robot" data-name="auto robot"><path d="m61 11v34h-58v-34a2.006 2.006 0 0 1 2-2h54a2.006 2.006 0 0 1 2 2z" fill="#57a4ff"/><path d="m61 11v34h-3v-34a2.006 2.006 0 0 0 -2-2h3a2.006 2.006 0 0 1 2 2z" fill="#2488ff"/><path d="m53 15a2.006 2.006 0 0 1 2 2 2.015 2.015 0 0 1 -2 2h-18a2.006 2.006 0 0 1 -2-2 2.015 2.015 0 0 1 2-2z" fill="#ff7956"/><path d="m53 25a2 2 0 0 1 0 4h-18a2.006 2.006 0 0 1 -2-2 2.015 2.015 0 0 1 2-2z" fill="#ffeb99"/><path d="m53 35a2.006 2.006 0 0 1 2 2 2.015 2.015 0 0 1 -2 2h-18a2.006 2.006 0 0 1 -2-2 2.015 2.015 0 0 1 2-2z" fill="#00d7df"/><path d="m41 57 3 4h-24l3-4h2 14z" fill="#ffeb99"/><path d="m38 51 1 6h-14l1-6h5z" fill="#e0e0e2"/><path d="m31 45h-28v4a2.006 2.006 0 0 0 2 2h54a2.006 2.006 0 0 0 2-2v-4z" fill="#00d7df"/><path d="m61 45v4a2.006 2.006 0 0 1 -2 2h-3a2.006 2.006 0 0 0 2-2v-4z" fill="#00b6bd"/><path d="m12.41 15.59a2 2 0 0 1 -1.41 3.41 2.006 2.006 0 0 1 -2-2 1.994 1.994 0 0 1 3.41-1.41z" fill="#00d7df"/><path d="m12.41 25.59a2 2 0 0 1 -1.41 3.41 2.006 2.006 0 0 1 -2-2 1.994 1.994 0 0 1 3.41-1.41z" fill="#ff7956"/><path d="m12.41 35.59a2 2 0 0 1 -1.41 3.41 2.006 2.006 0 0 1 -2-2 1.994 1.994 0 0 1 3.41-1.41z" fill="#ffeb99"/><path d="m20.479 36h-6.663a3 3 0 1 0 0 2h7.184a1 1 0 0 0 .819-.426l2.681-3.831.51 3.405a1 1 0 0 0 .99.852h6.184a3 3 0 0 0 2.816 2h18a3 3 0 0 0 0-6h-18a3 3 0 0 0 -2.816 2h-5.323l-.7-4.636 2.36-3.364h3.663a3 3 0 0 0 2.816 2h18a3 3 0 0 0 0-6h-18a3 3 0 0 0 -2.816 2h-4.184a1 1 0 0 0 -.82.427l-1.445 2.065-.892-5.945 3.637-4.547h3.7a3 3 0 0 0 2.82 2h18a3 3 0 0 0 0-6h-18a3 3 0 0 0 -2.816 2h-4.184a1 1 0 0 0 -.781.375l-2.78 3.476-.45-3a1 1 0 0 0 -.989-.851h-9.184a3 3 0 1 0 0 2h8.323l.6 3.979-3.22 4.021h-5.7a3 3 0 1 0 0 2h6.181a1 1 0 0 0 .781-.375l2.359-2.95.93 6.2zm-9.479 2a1 1 0 1 1 1-1 1 1 0 0 1 -1 1zm24-2h18a1 1 0 0 1 0 2h-18a1 1 0 0 1 0-2zm0-10h18a1 1 0 0 1 0 2h-18a1 1 0 0 1 0-2zm0-10h18a1 1 0 0 1 0 2h-18a1 1 0 0 1 0-2zm-24 2a1 1 0 1 1 1-1 1 1 0 0 1 -1 1zm0 10a1 1 0 1 1 1-1 1 1 0 0 1 -1 1z"/><path d="m31 47h2v2h-2z"/><path d="m59 8h-54a3 3 0 0 0 -3 3v38a3 3 0 0 0 3 3h19.82l-.667 4h-1.153a1 1 0 0 0 -.8.4l-3 4a1 1 0 0 0 .8 1.6h24a1 1 0 0 0 .8-1.6l-3-4a1 1 0 0 0 -.8-.4h-1.153l-.667-4h19.82a3 3 0 0 0 3-3v-38a3 3 0 0 0 -3-3zm-54 2h54a1 1 0 0 1 1 1v33h-56v-33a1 1 0 0 1 1-1zm37 50h-20l1.5-2h17zm-4.18-4h-11.64l.667-4h10.306zm21.18-6h-54a1 1 0 0 1 -1-1v-3h56v3a1 1 0 0 1 -1 1z"/></g></svg>