<svg id="Layer_1" enable-background="new 0 0 512.167 512.167" height="512" viewBox="0 0 512.167 512.167" width="512" xmlns="http://www.w3.org/2000/svg"><g id="XMLID_764_"><g id="XMLID_1674_"><path id="XMLID_729_" d="m398 82.083h-324c-35.346 0-64 28.654-64 64v224c0 35.346 28.654 64 64 64h324c35.346 0 64-28.654 64-64v-224c0-35.346-28.654-64-64-64z" fill="#c68a65"/></g><g id="XMLID_3577_"><path id="XMLID_725_" d="m137 198.083c-12.15 0-22 9.85-22 22v44c0 12.15 9.85 22 22 22 12.15 0 22-9.85 22-22v-44c0-12.15-9.85-22-22-22z" fill="#79b2ff"/></g><g id="XMLID_1748_"><path id="XMLID_708_" d="m335 198.083c12.15 0 22 9.85 22 22v44c0 12.15-9.85 22-22 22-12.15 0-22-9.85-22-22v-44c0-12.15 9.85-22 22-22z" fill="#79b2ff"/></g><g id="XMLID_2295_"><path id="XMLID_707_" d="m181.5 334.083h193.667v56h-193.667z" fill="#ffcb7c" transform="matrix(-1 0 0 -1 556.667 724.167)"/></g><g id="XMLID_2294_"><path id="XMLID_706_" d="m143.667 390.083h193.667v56h-193.667z" fill="#ffd89e" transform="matrix(-1 0 0 -1 481 836.167)"/></g><g id="XMLID_2293_"><path id="XMLID_705_" d="m181.5 446.083h193.667v56h-193.667z" fill="#ffcb7c" transform="matrix(-1 0 0 -1 556.667 948.167)"/></g><g id="XMLID_2288_"><circle id="XMLID_691_" cx="405.167" cy="405.083" fill="#ffcb7c" r="97"/></g><g id="XMLID_193_"><path id="XMLID_709_" d="m472 321.589v-135.506-40c0-40.804-33.196-74-74-74h-72v-27.096c0-24.76-20.144-44.903-44.903-44.903h-90.194c-24.759-.001-44.903 20.143-44.903 44.903v27.097h-72c-40.804 0-74 33.196-74 74v40 184c0 40.804 33.196 74 74 74h59.667v2c0 5.522 4.477 10 10 10h27.833v46c0 5.522 4.477 10 10 10h223.667c11.407 0 22.639-1.788 33.385-5.313 5.248-1.723 8.106-7.372 6.384-12.62-1.722-5.247-7.371-8.102-12.619-6.384-8.73 2.865-17.864 4.317-27.149 4.317-47.972 0-87-39.028-87-87s39.028-87 87-87 87 39.028 87 87c0 9.286-1.453 18.421-4.317 27.15-1.722 5.248 1.136 10.897 6.383 12.62 5.248 1.718 10.897-1.136 12.62-6.384 3.526-10.746 5.314-21.979 5.314-33.387-.001-33.735-15.699-63.868-40.168-83.494zm-306-276.602c0-13.731 11.171-24.903 24.903-24.903h90.194c13.731 0 24.903 11.172 24.903 24.903v27.097h-140zm-146 101.096c0-29.775 24.224-54 54-54h324c29.776 0 54 24.225 54 54v40c0 25.364-20.636 46-46 46h-39v-12c0-17.645-14.355-32-32-32s-32 14.355-32 32v12h-134v-12c0-17.645-14.355-32-32-32s-32 14.355-32 32v12h-39c-25.364 0-46-20.636-46-46zm303 74c0-6.617 5.383-12 12-12s12 5.383 12 12v44c0 6.617-5.383 12-12 12s-12-5.383-12-12zm-198 0c0-6.617 5.383-12 12-12s12 5.383 12 12v44c0 6.617-5.383 12-12 12s-12-5.383-12-12zm28.667 180h144.621c-.077 1.658-.121 3.324-.121 5 0 10.776 1.608 21.183 4.585 31h-149.085zm147.456-20h-109.623v-36h125.81c-7.479 10.738-13.04 22.904-16.187 36zm41.825 112h-151.448v-36h119.622c7.769 14.269 18.693 26.581 31.826 36zm-7.62-168h-153.828c-5.523 0-10 4.478-10 10v46h-27.833c-5.523 0-10 4.478-10 10v34h-59.667c-29.776 0-54-24.225-54-54v-136.735c11.897 11.582 28.125 18.736 46 18.736h39v12c0 17.645 14.355 32 32 32s32-14.355 32-32v-12h134v12c0 17.645 14.355 32 32 32s32-14.355 32-32v-12h39c17.875 0 34.103-7.154 46-18.736v75.545c-14.153-6.919-30.047-10.809-46.833-10.809-26.666-.001-51.083 9.806-69.839 25.999z"/><path id="XMLID_798_" d="m405.167 373.03c7.261 0 13.169 4.947 13.169 11.027 0 5.522 4.477 10 10 10s10-4.478 10-10c0-13.849-9.752-25.606-23.169-29.583v-1.39c0-5.522-4.477-10-10-10s-10 4.478-10 10v1.39c-13.417 3.978-23.168 15.734-23.168 29.583 0 17.108 14.879 31.026 33.168 31.026 7.261 0 13.169 4.946 13.169 11.026s-5.908 11.027-13.169 11.027-13.168-4.947-13.168-11.027c0-5.522-4.477-10-10-10s-10 4.478-10 10c0 13.849 9.752 25.606 23.168 29.583v1.39c0 5.522 4.477 10 10 10s10-4.478 10-10v-1.39c13.417-3.978 23.169-15.734 23.169-29.583 0-17.108-14.879-31.026-33.169-31.026-7.261 0-13.168-4.946-13.168-11.026s5.906-11.027 13.168-11.027z"/><path id="XMLID_834_" d="m473.76 463.673c-2.64 0-5.21 1.07-7.07 2.93-1.87 1.86-2.93 4.44-2.93 7.07s1.06 5.21 2.93 7.07c1.86 1.859 4.43 2.93 7.07 2.93 2.63 0 5.21-1.07 7.07-2.93s2.92-4.44 2.92-7.07-1.06-5.21-2.92-7.07-4.44-2.93-7.07-2.93z"/></g></g></svg>