<svg id="Layer_3" enable-background="new 0 0 64 64" height="512" viewBox="0 0 64 64" width="512" xmlns="http://www.w3.org/2000/svg"><g><path d="m17 32h30v30h-30z" fill="#f6b940"/><path d="m41 61c1.105 0 2-.895 2-2v-24c0-1.105-.895-2-2-2h-24v28z" fill="#fad85d"/><path d="m21 38v-3h23v24h-23v-3" fill="#61668c"/><path d="m26 57c-1.105 0-2-.895-2-2v-16c0-1.105.895-2 2-2 1.105 0 2 .895 2 2v16c0 1.105-.895 2-2 2z" fill="#e2e7f6"/><path d="m21 2v26h22v-26" fill="#6bc13b"/><path d="m24 2v20c1.657 0 3 1.343 3 3h10c0-1.657 1.343-3 3-3v-20" fill="#559b2d"/><g fill="#a9adcc"><path d="m20 38h3v6h-3z"/><path d="m20 50h3v6h-3z"/><circle cx="33" cy="47" r="8"/></g><circle cx="33" cy="47" fill="#e2e7f6" r="5"/><g fill="#fff"><path d="m41 9h-2.142c-.447-1.72-2-3-3.858-3-2.206 0-4 1.794-4 4 0 1.103-.897 2-2 2s-2-.897-2-2 .897-2 2-2v-2c-1.858 0-3.411 1.28-3.858 3h-2.142v2h2.142c.447 1.72 2 3 3.858 3 2.206 0 4-1.794 4-4 0-1.103.897-2 2-2s2 .897 2 2-.897 2-2 2v2c1.858 0 3.411-1.28 3.858-3h2.142z"/><path d="m31 15h2v2h-2z"/><path d="m31 3h2v2h-2z"/></g><path d="m55 5v8h4l-6 6-6-6h4v-8" fill="#f6b940"/><g><path d="m50 1h2v2h-2z" fill="#f6b940"/></g><path d="m13 15v8h4l-6 6-6-6h4v-8" fill="#f6b940"/><g><path d="m8 11h2v2h-2z" fill="#f6b940"/></g><path d="m53 5h-2v8h-4l3 3h1c1.105 0 2-.895 2-2z" fill="#fad85d"/><path d="m11 15h-2v8h-4l3 3h1c1.105 0 2-.895 2-2z" fill="#fad85d"/><path d="m16 32v30c0 .553.448 1 1 1h30c.552 0 1-.447 1-1v-30c0-.552-.448-1-1-1h-30c-.552 0-1 .448-1 1zm2 1h28v28h-28z"/><path d="m44 34h-23c-.552 0-1 .447-1 1v2c-.552 0-1 .447-1 1v6c0 .553.448 1 1 1v4c-.552 0-1 .447-1 1v6c0 .553.448 1 1 1v2c0 .553.448 1 1 1h23c.552 0 1-.447 1-1v-24c0-.553-.448-1-1-1zm-23 9v-4h1v4zm0 12v-4h1v4zm22 3h-21v-1h1c.552 0 1-.447 1-1v-6c0-.553-.448-1-1-1h-1v-4h1c.552 0 1-.447 1-1v-6c0-.553-.448-1-1-1h-1v-1h21z"/><path d="m33 56c4.962 0 9-4.037 9-9s-4.038-9-9-9-9 4.037-9 9 4.038 9 9 9zm0-16c3.86 0 7 3.141 7 7s-3.14 7-7 7-7-3.141-7-7 3.14-7 7-7z"/><path d="m33 53c3.309 0 6-2.691 6-6s-2.691-6-6-6-6 2.691-6 6 2.691 6 6 6zm0-10c2.206 0 4 1.794 4 4s-1.794 4-4 4-4-1.794-4-4 1.794-4 4-4z"/><path d="m20 1v27c0 .552.448 1 1 1h22c.552 0 1-.448 1-1v-27h-2v26h-20v-26z"/><path d="m29 8v-2c-1.858 0-3.411 1.28-3.858 3h-2.142v2h2.142c.447 1.72 2 3 3.858 3 2.206 0 4-1.794 4-4 0-1.103.897-2 2-2s2 .897 2 2-.897 2-2 2v2c1.858 0 3.411-1.28 3.858-3h2.142v-2h-2.142c-.447-1.72-2-3-3.858-3-2.206 0-4 1.794-4 4 0 1.103-.897 2-2 2s-2-.897-2-2 .897-2 2-2z"/><path d="m23 22c0 .552.448 1 1 1 1.103 0 2 .897 2 2 0 .552.448 1 1 1h10c.552 0 1-.448 1-1 0-1.103.897-2 2-2 .552 0 1-.448 1-1v-7h-2v6.126c-1.404.363-2.511 1.47-2.874 2.874h-8.253c-.363-1.404-1.47-2.511-2.874-2.874v-6.126h-2v7z"/><path d="m31 15h2v2h-2z"/><path d="m31 3h2v2h-2z"/><path d="m53 20c.256 0 .512-.098.707-.293l6-6c.286-.286.372-.716.217-1.09-.155-.373-.52-.617-.924-.617h-3v-7h-2v8c0 .552.448 1 1 1h1.586l-3.586 3.586-3.586-3.586h1.586c.552 0 1-.448 1-1v-8h-2v7h-3c-.404 0-.769.244-.924.617-.155.374-.069.804.217 1.09l6 6c.195.195.451.293.707.293z"/><path d="m50 1h2v2h-2z"/><path d="m8 22h-3c-.404 0-.769.244-.924.617-.155.374-.069.804.217 1.09l6 6c.195.195.451.293.707.293s.512-.098.707-.293l6-6c.286-.286.372-.716.217-1.09-.155-.373-.52-.617-.924-.617h-3v-7h-2v8c0 .552.448 1 1 1h1.586l-3.586 3.586-3.586-3.586h1.586c.552 0 1-.448 1-1v-8h-2z"/><path d="m8 11h2v2h-2z"/></g></svg>