<svg height="512pt" viewBox="-1 0 512 512.00001" width="512pt" xmlns="http://www.w3.org/2000/svg"><path d="m501.769531 0-90.570312 1.363281c-1.855469.027344-2.902344 2.140625-1.804688 3.632813l16.734375 22.785156c2.957032 4.027344 1.820313 9.71875-2.453125 12.300781l-60.886719 36.816407c-3.203124 1.9375-7.300781 1.546874-10.085937-.960938l-27.011719-24.355469c-2.847656-2.570312-7.070312-2.910156-10.296875-.828125l-151.832031 97.984375c-3.042969 1.964844-7 1.785157-9.847656-.453125l-44.777344-35.128906c-2.796875-2.191406-6.664062-2.414062-9.695312-.554688l-93.574219 57.496094c-3.519531 2.164063-5.667969 6.003906-5.667969 10.136719v27.285156c0 9.386719 10.367188 15.074219 18.285156 10.03125l80.972656-51.574219c3.015626-1.921874 6.914063-1.746093 9.746094.4375l44.691406 34.421876c2.863282 2.203124 6.808594 2.355468 9.832032.378906l150.15625-98.125c3.300781-2.15625 7.648437-1.757813 10.503906.957031l21.453125 20.410156c2.757813 2.625 6.925781 3.09375 10.199219 1.148438l92.300781-54.886719c3.761719-2.234375 8.601563-1.25 11.191406 2.273438l11.09375 15.105468c4.085938 5.5625 12.75 4.1875 14.914063-2.367187l24.621094-74.574219c1.835937-5.542969-2.351563-11.2421875-8.191407-11.15625zm0 0" fill="#8bebdb"/><path d="m509.96875 11.160156-24.628906 74.570313c-2.160156 6.554687-10.824219 7.933593-14.910156 2.367187l-11.09375-15.109375c-2.59375-3.515625-7.429688-4.503906-11.199219-2.273437l-92.300781 54.894531c-3.273438 1.945313-7.4375 1.472656-10.195313-1.152344l-21.449219-20.40625c-2.859375-2.71875-7.203125-3.121093-10.507812-.957031l-150.15625 98.125c-3.027344 1.976562-6.96875 1.820312-9.828125-.382812l-44.695313-34.421876c-2.828125-2.183593-6.730468-2.359374-9.746094-.433593l-80.972656 51.570312c-7.921875 5.042969-18.285156-.648437-18.285156-10.035156v-22.925781c0 9.394531 10.363281 15.074218 18.285156 10.03125l80.972656-51.566406c3.015626-1.925782 6.917969-1.75 9.746094.429687l44.695313 34.425781c2.859375 2.199219 6.800781 2.355469 9.828125.378906l150.15625-98.125c3.304687-2.152343 7.644531-1.761718 10.507812.957032l21.445313 20.40625c2.757812 2.625 6.925781 3.097656 10.199219 1.152344l92.300781-54.894532c3.765625-2.230468 8.601562-1.242187 11.199219 2.277344l4.421874 8.449219c4.085938 5.554687 12.753907 4.1875 14.921876-2.367188l18.515624-56.066406 4.570313-.07421875c5.84375-.08984375 10.035156 5.60937475 8.203125 11.15624975zm0 0" fill="#5ee2c5"/><path d="m119.585938 512h-110.003907c-5.113281 0-9.261719-4.148438-9.261719-9.261719v-188.582031c0-5.113281 4.148438-9.261719 9.261719-9.261719h110.003907c5.113281 0 9.261718 4.148438 9.261718 9.261719v188.582031c0 5.113281-4.148437 9.261719-9.261718 9.261719zm0 0" fill="#f38dc5"/><path d="m128.84375 314.152344v188.585937c0 5.113281-4.144531 9.261719-9.261719 9.261719h-23.667969c5.113282 0 9.261719-4.148438 9.261719-9.261719v-188.585937c0-5.113282-4.148437-9.261719-9.261719-9.261719h23.667969c5.117188 0 9.261719 4.148437 9.261719 9.261719zm0 0" fill="#ee74b8"/><path d="m500.816406 512h-110.003906c-5.113281 0-9.261719-4.148438-9.261719-9.261719v-322.671875c0-5.113281 4.148438-9.261718 9.261719-9.261718h110.003906c5.117188 0 9.261719 4.148437 9.261719 9.261718v322.671875c0 5.113281-4.144531 9.261719-9.261719 9.261719zm0 0" fill="#5290d9"/><path d="m310.199219 512h-110c-5.117188 0-9.261719-4.148438-9.261719-9.261719v-248.867187c0-5.117188 4.144531-9.261719 9.261719-9.261719h110c5.117187 0 9.265625 4.144531 9.265625 9.261719v248.867187c0 5.113281-4.148438 9.261719-9.265625 9.261719zm0 0" fill="#ffcd6b"/><path d="m510.078125 180.070312v322.667969c0 5.113281-4.144531 9.261719-9.261719 9.261719h-23.667968c5.113281 0 9.261718-4.148438 9.261718-9.261719v-322.667969c0-5.117187-4.148437-9.261718-9.261718-9.261718h23.667968c5.117188 0 9.261719 4.144531 9.261719 9.261718zm0 0" fill="#3c7dbc"/><path d="m319.46875 253.867188v248.871093c0 5.113281-4.148438 9.261719-9.261719 9.261719h-23.671875c5.117188 0 9.261719-4.148438 9.261719-9.261719v-248.871093c0-5.113282-4.144531-9.261719-9.261719-9.261719h23.671875c5.113281 0 9.261719 4.148437 9.261719 9.261719zm0 0" fill="#ffc143"/></svg>