<?xml version="1.0" standalone="no"?>
<!DOCTYPE svg PUBLIC "-//W3C//DTD SVG 20010904//EN"
 "http://www.w3.org/TR/2001/REC-SVG-20010904/DTD/svg10.dtd">
<svg version="1.0" xmlns="http://www.w3.org/2000/svg"
 width="424.000000pt" height="424.000000pt" viewBox="0 0 424.000000 424.000000"
 preserveAspectRatio="xMidYMid meet">
<metadata>
Created by potrace 1.11, written by Peter Selinger 2001-2013
</metadata>
<g transform="translate(0.000000,424.000000) scale(0.100000,-0.100000)"
fill="#000000" stroke="none">
<path d="M2297 3929 c-12 -13 -22 -17 -30 -11 -7 5 -30 10 -52 11 -22 1 -59 4
-82 5 -24 2 -46 0 -49 -5 -3 -5 -13 -5 -25 1 -11 6 -19 7 -19 1 0 -5 -8 -7
-18 -4 -31 8 -181 -35 -250 -72 -36 -19 -70 -31 -76 -28 -6 3 -8 3 -4 -2 7 -7
-32 -45 -46 -45 -3 0 -22 -16 -42 -35 -19 -19 -40 -35 -45 -35 -5 0 -9 -5 -9
-12 0 -7 -13 -24 -29 -38 -16 -14 -47 -58 -68 -98 -22 -40 -44 -73 -48 -72 -3
1 -10 -2 -13 -6 -4 -4 -1 -4 6 0 10 6 11 1 6 -21 -4 -15 -11 -31 -16 -34 -5
-3 -11 -12 -13 -20 -9 -40 -18 -58 -26 -53 -5 3 -6 -2 -3 -10 3 -8 2 -21 -2
-28 -5 -7 -9 -18 -10 -24 -1 -5 -11 -30 -23 -54 -11 -24 -21 -47 -21 -51 0 -4
-16 -41 -35 -82 -19 -41 -35 -77 -35 -80 0 -3 -13 -34 -30 -69 -32 -70 -52
-117 -55 -133 -2 -5 -16 -39 -33 -75 -17 -35 -28 -68 -26 -72 3 -5 1 -8 -5 -8
-5 0 -15 -17 -22 -37 -6 -21 -16 -47 -22 -58 -6 -11 -12 -25 -13 -30 -5 -32
-50 -118 -68 -132 -15 -11 -16 -14 -4 -10 19 7 18 0 -13 -60 -10 -20 -19 -44
-19 -53 0 -8 -7 -24 -16 -35 -13 -17 -16 -18 -24 -5 -5 8 -10 10 -10 4 0 -5 5
-15 10 -20 10 -10 -1 -43 -48 -144 -9 -19 -17 -38 -18 -42 -1 -5 -3 -10 -4
-13 -3 -5 -6 -19 -9 -32 -1 -5 -6 -1 -12 7 -9 12 -10 12 -5 -3 3 -10 0 -28 -6
-40 -7 -12 -13 -24 -13 -27 -11 -46 -19 -60 -31 -56 -8 3 -14 1 -14 -3 0 -5 5
-11 12 -13 7 -3 6 -12 -6 -30 -10 -15 -18 -29 -18 -32 1 -3 -9 -28 -20 -55
-15 -36 -26 -48 -37 -44 -13 4 -13 3 -2 -5 9 -7 11 -16 6 -28 -5 -11 -9 -23
-9 -27 -1 -4 -12 -20 -26 -34 -14 -15 -19 -23 -11 -18 11 6 13 4 7 -11 -4 -10
-9 -23 -10 -29 -2 -5 -8 -23 -15 -40 -6 -16 -14 -36 -16 -43 -3 -7 -8 -11 -12
-9 -5 3 -9 -6 -9 -20 -1 -13 -8 -32 -16 -41 -8 -9 -15 -27 -16 -40 0 -13 -7
-30 -14 -39 -6 -8 -13 -20 -14 -27 -4 -19 -56 -141 -63 -146 -3 -3 -6 -12 -6
-20 0 -8 -5 -14 -11 -13 -5 1 -9 -12 -8 -28 2 -29 -10 -39 -20 -16 -3 6 -3 2
0 -10 3 -13 2 -28 -3 -35 -4 -7 -8 -15 -9 -18 0 -3 -8 -21 -16 -40 -9 -19 -24
-53 -33 -75 -9 -22 -23 -52 -31 -68 -8 -15 -12 -27 -9 -27 3 0 0 -10 -7 -22
-15 -26 -19 -209 -6 -219 5 -3 10 -14 12 -25 2 -11 13 -35 25 -54 11 -19 24
-42 28 -50 8 -19 43 -50 55 -50 5 0 8 -8 6 -18 -2 -11 3 -16 16 -15 10 0 39
-10 63 -24 25 -13 47 -22 50 -19 4 3 12 1 20 -5 7 -6 22 -9 33 -6 11 3 20 2
20 -1 0 -4 125 -7 277 -7 l278 0 6 35 c9 53 42 121 56 116 7 -3 10 1 6 9 -6
16 39 65 97 105 50 36 76 48 112 54 18 3 44 8 58 12 49 11 65 9 81 -8 15 -17
17 -17 33 1 10 11 17 25 16 33 -4 28 12 57 28 51 14 -4 14 -3 3 5 -12 8 -12
14 -3 25 7 7 8 18 4 22 -4 5 -1 5 5 1 8 -4 17 2 25 19 7 15 17 24 25 21 8 -3
12 -2 8 3 -6 11 73 51 103 51 21 0 62 35 62 52 0 5 5 6 12 2 7 -5 8 -3 3 5 -4
7 -3 23 3 34 25 57 36 84 39 107 3 13 8 27 12 30 10 7 36 92 33 107 -1 6 3 15
9 19 9 5 10 2 6 -9 -6 -16 24 -43 36 -31 4 4 66 6 157 3 8 0 31 2 51 4 34 5
37 3 45 -27 4 -17 7 -37 7 -43 0 -7 3 -10 8 -7 5 3 10 2 10 -3 1 -4 3 -21 5
-36 1 -16 7 -34 12 -40 5 -7 15 -30 22 -52 13 -40 47 -97 62 -103 4 -2 8 -10
8 -18 0 -8 5 -14 11 -14 5 0 7 5 4 10 -11 17 28 11 70 -11 60 -32 107 -85 100
-112 -5 -17 -4 -19 4 -7 8 12 11 11 16 -5 4 -11 10 -27 14 -35 10 -21 2 -52
-11 -44 -7 4 -8 2 -4 -5 4 -6 12 -9 17 -5 6 3 17 -2 25 -12 15 -18 15 -18 10
0 -5 13 -2 17 8 13 8 -3 17 1 20 9 3 9 9 13 13 11 5 -3 26 -8 48 -12 41 -7 66
-12 75 -15 3 -1 9 -2 13 -1 14 2 112 -66 150 -105 20 -21 35 -45 32 -52 -3 -7
-1 -11 4 -8 15 10 33 -22 51 -87 l17 -62 269 1 c299 1 338 5 407 39 27 13 56
21 65 18 11 -3 13 -2 5 4 -8 6 -5 14 12 29 13 12 25 20 27 19 2 -1 12 7 23 18
11 11 14 16 6 12 -16 -9 -11 1 24 50 12 17 28 50 36 75 19 62 17 196 -5 238
-9 17 -14 32 -12 32 3 0 -8 27 -25 59 -16 33 -29 63 -29 66 0 3 -12 32 -27 63
-15 31 -26 60 -25 63 1 4 -12 34 -28 68 -17 34 -30 66 -30 71 0 5 -8 26 -19
47 -40 82 -49 107 -43 121 3 10 1 13 -6 8 -7 -4 -12 -1 -12 6 0 8 -9 32 -21
53 -11 22 -31 66 -44 98 -21 51 -22 58 -7 52 9 -3 3 7 -13 22 -18 16 -30 37
-29 51 1 12 -3 22 -7 22 -5 0 -9 5 -9 11 0 5 -12 36 -26 67 -15 31 -35 76 -46
99 -10 23 -21 52 -23 64 -2 11 -9 27 -16 35 -6 8 -9 21 -5 29 3 9 2 13 -4 10
-6 -3 -15 6 -20 22 -6 15 -13 35 -17 43 -3 8 -7 17 -8 20 -1 3 -7 19 -14 35
-7 17 -20 46 -28 65 -8 19 -15 36 -14 38 1 1 -8 19 -19 39 -11 21 -20 42 -20
46 0 5 -7 25 -17 44 -14 30 -14 36 -2 45 11 8 11 9 -3 5 -11 -4 -18 2 -23 21
-4 15 -10 29 -14 32 -4 3 -22 43 -41 90 -18 47 -40 99 -49 115 -20 40 -22 57
-9 72 7 9 7 13 0 13 -6 0 -12 -6 -15 -12 -3 -8 -7 -6 -12 7 -4 11 -11 29 -16
40 -6 12 -11 27 -13 35 -1 8 -12 35 -23 60 -49 104 -73 161 -73 174 0 7 -7 19
-15 26 -9 7 -13 15 -11 18 3 3 -1 17 -9 31 -28 50 -77 176 -79 203 0 14 -5 26
-11 25 -5 -1 -9 3 -10 8 0 6 -6 19 -11 30 -6 11 -10 30 -9 42 1 14 -3 19 -12
16 -8 -3 -13 3 -13 17 0 11 5 18 10 15 6 -3 10 -1 10 5 0 7 -6 10 -14 7 -10
-4 -24 13 -46 54 -17 32 -28 59 -25 59 3 0 -36 41 -85 90 -49 50 -97 90 -105
90 -10 0 -15 7 -13 17 2 13 -4 18 -22 18 -14 1 -44 12 -65 25 -22 14 -42 25
-45 26 -6 1 -35 12 -68 25 -13 5 -32 9 -43 9 -17 0 -18 3 -9 20 14 26 9 25
-13 -1z m-32 -2739 c3 -5 1 -10 -4 -10 -6 0 -11 5 -11 10 0 6 2 10 4 10 3 0 8
-4 11 -10z"/>
<path d="M1925 3930 c3 -5 8 -10 11 -10 2 0 4 5 4 10 0 6 -5 10 -11 10 -5 0
-7 -4 -4 -10z"/>
<path d="M2250 1080 c0 -5 5 -10 11 -10 5 0 7 5 4 10 -3 6 -8 10 -11 10 -2 0
-4 -4 -4 -10z"/>
<path d="M3855 1070 c-3 -5 -1 -10 4 -10 6 0 11 5 11 10 0 6 -2 10 -4 10 -3 0
-8 -4 -11 -10z"/>
<path d="M1745 810 c-3 -5 -1 -10 4 -10 6 0 11 5 11 10 0 6 -2 10 -4 10 -3 0
-8 -4 -11 -10z"/>
<path d="M2476 805 c4 -8 8 -15 10 -15 2 0 4 7 4 15 0 8 -4 15 -10 15 -5 0 -7
-7 -4 -15z"/>
<path d="M2335 778 c4 -9 22 -24 41 -34 19 -10 34 -24 34 -31 0 -6 13 -20 29
-29 17 -10 28 -21 26 -25 -3 -4 2 -12 10 -19 8 -7 15 -16 15 -21 0 -4 5 -20
12 -36 6 -15 12 -31 13 -35 2 -5 4 -11 5 -15 1 -5 3 -15 4 -23 1 -12 20 -15
102 -16 79 0 115 -6 167 -24 39 -14 67 -30 67 -37 0 -8 5 -11 10 -8 6 4 22 -1
35 -9 14 -9 25 -12 25 -7 0 14 -50 71 -63 71 -6 0 -22 10 -35 23 -14 12 -22
17 -18 10 3 -6 -13 -2 -36 11 -32 16 -62 22 -118 23 -41 1 -81 2 -88 2 -7 1
-10 6 -7 11 3 6 1 10 -5 10 -6 0 -8 4 -5 10 17 28 -75 145 -132 169 -18 7 -33
17 -33 21 0 5 -8 7 -17 5 -10 -1 -24 2 -31 8 -9 7 -11 6 -7 -5z"/>
<path d="M1845 771 c2 -5 -10 -15 -28 -22 -17 -7 -48 -30 -68 -51 -20 -21 -43
-38 -50 -38 -11 0 -11 -2 1 -10 12 -8 12 -10 1 -10 -8 0 -12 -3 -8 -6 3 -4 -1
-20 -9 -36 -8 -16 -12 -32 -10 -37 3 -5 -8 -11 -25 -13 -16 -3 -32 -1 -35 4
-3 5 -9 6 -14 3 -5 -3 -29 -7 -52 -9 -46 -2 -185 -63 -207 -90 -7 -9 -16 -14
-20 -12 -10 6 -8 -41 2 -50 4 -5 5 -2 2 7 -4 10 5 19 27 28 18 8 37 13 41 12
4 -1 10 6 13 14 3 8 10 12 15 9 6 -3 16 -1 22 5 18 14 76 22 182 24 72 2 90 5
91 17 1 8 2 18 4 23 5 13 7 22 15 54 4 18 14 38 21 44 8 6 14 18 14 26 0 8 3
12 8 10 4 -3 18 10 32 28 14 18 40 41 58 51 17 9 31 18 29 20 -7 7 -57 12 -52
5z"/>
<path d="M1702 745 c-11 -12 -10 -15 3 -15 8 0 15 7 15 15 0 18 -2 18 -18 0z"/>
<path d="M2520 740 c0 -6 7 -10 15 -10 8 0 15 2 15 4 0 2 -7 6 -15 10 -8 3
-15 1 -15 -4z"/>
<path d="M2890 539 c0 -5 5 -7 10 -4 6 3 10 8 10 11 0 2 -4 4 -10 4 -5 0 -10
-5 -10 -11z"/>
<path d="M1405 520 c-3 -5 1 -10 10 -10 9 0 13 5 10 10 -3 6 -8 10 -10 10 -2
0 -7 -4 -10 -10z"/>
<path d="M2830 526 c0 -2 7 -7 16 -10 8 -3 12 -2 9 4 -6 10 -25 14 -25 6z"/>
</g>
</svg>
