<?xml version="1.0"?><svg version="1.2" baseProfile="tiny-ps" viewBox="0 0 300 300" xmlns="http://www.w3.org/2000/svg" xmlns:xlink="http://www.w3.org/1999/xlink"><title>CS Personal Finance</title><g><g fill="#28f1c4" transform="matrix(.1 0 0 -.1 0 300)"><path d="M1385 2743c-141-13-348-77-485-150-123-66-175-103-265-190-155-150-214-229-294-396l-52-108-19-77c-11-42-26-117-35-166l-15-89v-106c0-108 9-186 36-301 27-117 35-140 86-248 50-107 84-158 186-285l55-68 88-72c48-40 100-82 115-95 40-32 233-124 329-157l80-27 110-14c141-18 253-18 393 1l112 15 78 26c42 14 123 48 178 75l102 50 88 63 89 64 80 83 81 84 43 67 43 67 32 7c36 7 135 55 176 84l28 20 16 40 16 40v86l-30 47-29 46-43 32c-24 17-75 47-114 65l-72 34-118 30c-236 60-495 99-654 98h-85l160-28c88-16 180-33 205-38 25-6 71-16 103-22l57-13v-22c0-27-31-117-59-172l-21-41-47-16c-27-8-74-22-106-30l-58-15-31 34-30 35h-45c-24 0-53-5-64-10l-19-11-21-41-21-40-45 6c-25 3-60 6-77 6h-31l-14 30-13 31-26 17-26 17h-115l-23-23-24-22-77 26-77 26-28 35-27 36-30 12-30 13-30-5-30-4-85 56c-47 32-105 73-129 93l-44 35 6 116 5 116 26 78c62 186 163 317 321 420 91 59 160 86 265 103 107 18 172 17 285-1l90-14 100-50 100-50 45-38c75-62 128-127 175-209 25-43 46-82 48-87l3-10 118 57c66 31 122 56 127 56 4 0 57 24 118 52l111 52-6 21c-9 33-103 184-161 262-30 40-91 106-135 148l-79 75-97 63c-119 78-131 85-212 115-122 44-225 73-322 87l-98 15-72-2c-40-1-91-3-113-5zm-25-788-23-25h13c8 0 24-10 37-22l23-21v59l12 12c7 7 10 12 8 13-3 0-14 2-26 4l-21 4-23-24zm334-20-6-14 16-16 16-16 10 26c13 35 13 35-10 35h-21l-5-15zm178-188-11-13 20-13c24-14 24-14 33 17l7 22h-19c-11 0-24-6-30-13zm-451-151-12-14-114 5-113 6-64-12c-34-7-80-22-100-32l-38-20 9-17c35-65 189-145 321-167l44-7 18-23 18-23 112-16c62-10 122-20 133-22l20-5-58 53-57 53 12 75 13 75 63 29c34 16 62 32 62 36 0 7-192 40-233 40h-25l-11-14zm214-176c17-4 41-8 55-8h25l-30 8c-16 4-41 8-55 8h-25l30-8z"/></g><g fill="#15eeb8" transform="matrix(.1 0 0 -.1 0 300)"><path d="m1720 2710-25-7 17-8 17-7 16 16c18 17 14 18-25 6zm43-17c-7-3-13-9-13-15v-10l18 4 19 5v-28l-18 4-17 5 13-32 13-31h62v-12c0-6 8-14 18-16l17-5-25-1-25-2 23-10c13-5 28-7 33-3l9 5v-10c0-5-5-13-10-16l-11-7-14 12-15 12v-9c0-5 6-15 13-22l12-13-40 17c-22 9-78 26-125 37l-85 21-160 5-160 4-85-17c-202-41-328-100-510-238-36-27-67-53-68-58l-4-9-10 6-10 7 12 7 12 8-6 30-7 30-19-5c-11-3-25-11-31-19l-11-14h10c5 0 12-9 15-20l5-20-9 6-9 5-1-13c-1-7-4-2-8 10l-6 24-47-45c-25-25-44-48-41-51s-2-8-11-12c-9-3-16-12-16-20s-5-14-11-14h-10l5-9 6-9-15-6c-8-3-15-9-14-13 3-18-2-32-14-45-17-17-77-144-77-163v-15h-22l6-15 5-15h-20l6-9 5-10-10-6-10-6 5-10c4-5 3-15-2-21-9-16-7-8-32-153l-21-120v-75c0-41 5-104 11-140s12-83 15-105 10-53 16-70c5-16 12-43 14-59s11-40 19-52c8-13 15-30 15-38s16-45 35-83c19-37 35-74 35-80 0-7 5-13 10-13 6 0 10-4 10-9 0-9 105-161 119-171 3-3 23-25 45-49 44-50 180-171 193-171 4 0 18-10 29-23 27-27 196-113 249-126 6-2 15-6 20-11 17-13 146-50 156-44l9 5v-20h33c17 0 46-3 62-6 17-3 89-7 160-10l130-3 45 8c25 5 69 11 99 14l54 6 91 31c50 17 101 38 113 46 13 9 23 12 23 9 0-11 90 39 185 102 142 94 278 230 354 354l22 38 42 11c61 16 148 63 179 96 34 36 48 73 48 127v42l-29 47-30 46-48 35c-26 20-86 52-132 71l-85 36-152 34c-194 45-393 74-542 81-120 5-145 1-57-10 28-4 73-11 100-16 28-5 88-17 135-25 47-9 115-23 153-31l67-16v-22c0-32-36-138-61-181l-21-35-96-30c-53-16-101-30-106-30-6 0-20 12-31 26l-21 26-45 5-46 5-36-23-36-24-6-22-5-23h-39c-21 0-59 3-84 6l-46 7-6 16c-3 9-24 29-47 44l-43 28-40-5c-60-8-72-11-87-24l-15-12-74 26c-41 14-81 27-89 29l-15 3 2 11c2 6-2 11-8 11h-10l5 9 6 8-20 18c-11 10-20 15-20 10v-7l-12 9-13 10-43-1-42-1v16l-10-6-10-6v10c0 6-7 11-15 11s-15 3-15 8c0 4-17 16-37 27-21 11-43 27-50 35s-13 12-13 8c0-7-25 11-56 40-8 7-14 10-14 5 0-4-7 3-17 16l-16 24-5 72-4 73 11 48c6 27 13 67 16 88 2 22 8 42 13 45s9 13 9 21c0 23 42 110 54 110h10l-6 10-6 10h22l-6 10-6 10 15 6c9 3 16 12 16 20s5 14 10 14c6 0 10 4 10 10 0 12 138 150 150 150 6 0 10 5 10 10 0 6 7 10 15 10 7 0 18 7 23 16 5 8 16 16 24 18 9 1 22 6 29 12 20 15 111 54 134 59 11 2 20 4 20 5 0 4 59 10 173 17l124 8 5-8 5-9 24 5 24 4 6-8c3-5 16-9 29-9 48 0 196-72 287-140l68-50 45-58c50-65 76-107 101-164 9-21 18-38 19-38 2 0 56 25 120 55 63 30 119 55 124 55 7 0 219 98 229 106 5 3-33 77-76 149-106 177-284 357-424 430-21 11-38 23-38 27s-18 12-40 18l-40 11v20l-9-6-9-5-15 14c-8 8-17 13-20 10s-13-1-24 5c-10 6-42 20-71 31l-53 20-24-6-23-6-19 10c-10 5-24 7-30 5zM540 2255c-7-8-17-15-22-15h-9l13 15c7 8 17 14 22 15h8l-12-15zm-40-226-8-41-11-8-12-7-4-96-4-97h14l-3-49-4-50 21-13 21-13v-39l-16 22-15 22-10-6-10-6 10-12 11-13-7-7-7-7-2-212-1-212 14-14 15-14-31-19c-17-11-31-22-31-25 0-2 5-1 10 2l10 6v-22c0-27 38-109 50-109h9l-2-35c-2-40-12-46-20-13l-6 22 10 7 11 6-14 6-14 5 2-59c1-32 0-59-2-59-7 0-114 225-114 240 0 9-4 20-9 25-11 11-27 85-43 190l-10 70 6 115 5 115 21 80c34 132 36 138 64 197 14 31 26 61 26 66s9 17 20 27 20 24 20 32v13h30v41l9-5 8-6-7-41zm117-96-5-18v70l5-17c2-10 2-26 0-35zm3-167 15-20-14 9-14 8 5-31 4-31-6 4c-4 3-18-7-30-20l-23-25h-40l26 20 25 20 18 45c9 25 18 44 18 43 1-2 8-12 16-22zm-44-704c4-18 4-35 1-38-6-6-30 37-42 74l-7 23 21-13 21-13 6-33zm844-197 45-15-44 4c-24 2-48 9-54 15l-11 11h10c5 0 29-7 54-15zm450-200c-7-9-15-13-17-11-7 7 7 26 19 26h10l-12-15zm-703-105c7 0 13-5 13-11v-11l-16 6c-9 3-22 6-29 6-16 0-75 48-75 61 0 5 21-5 47-21 26-17 53-30 60-30zm871-9c-15-24-79-61-104-61l-19 1 52 25c28 13 57 31 63 39 18 21 22 18 8-4zm-1038-98c12-13-56 10-70 23l-15 15 40-17c22-9 42-19 45-21zM401 1864l1-19 5 13c3 7 2 16-1 19-3 4-6-2-5-13zm39-705v-10l10 6c6 3 10 8 10 11 0 2-4 4-10 4-5 0-10-5-10-11zm-39-85 1-19 5 13c3 7 2 16-1 19-3 4-6-2-5-13zm46-79-6-14 7-5 8-5 1 20c2 23-3 25-10 4zm1044 595c-18-4-36-12-40-17l-6-9-32 2-33 1v-8c0-4-10-9-22-11l-22-3-10-32-9-33h-61l-22-21-23-21-25 6-26 6v15c0 7-6 17-12 22-16 9-138 21-138 13 0-11 66-70 78-70 7 0 12-5 12-11v-10l10 6 10 6v-22l9 6 10 5 5-9c7-11 92-39 157-51l50-10 22-24 22-25 55-6c30-4 73-11 95-16 22-4 52-9 67-9h27l-51 48-50 48 12 76 12 75 28 16 27 16 7-6 6-6v11c0 7 3 11 8 10 4 0 15 2 24 6l18 8-6 9-5 9h-118l-6 10c-7 11-7 11-54 0zm187-177c6-2 18-2 25 0l12 5h-50l13-5z"/></g><g fill="#07eda5" transform="matrix(.1 0 0 -.1 0 300)"><path d="m1343 2572-33-3v-309h20l-14-22-15-23h44c24 0 47 3 51 8l7 7h-43v10c0 13 6 13 41-6l30-15 90 4 89 5v-20l31 7 32 7-8-13-8-12 16 6 17 6 28-11c15-6 35-13 44-14 24-5 101-49 182-102l68-46 52-58c53-61 80-102 118-178 13-25 23-46 24-48s48 19 103 47c56 27 112 53 124 56 20 6 238 104 245 110 5 5-48 106-79 152-16 23-29 44-29 48 0 5-33 49-90 119-33 41-142 150-135 136 3-8-4-2-18 13l-24 28-22 2-21 1 4 13 5 13h-13c-8 0-17 6-19 13l-5 12-1-22-1-23h-30l12-22c7-13 17-26 22-29l9-7-6-23-6-23 8-10c5-6 10-29 12-52l4-41-10-10-10-10-63 55c-78 65-144 108-248 161-73 36-102 47-239 88l-50 15-130 6c-71 4-145 6-162 4zm797-46c28-17 56-20 64-7l6 9-20 5-20 5 7-11 6-10-16 6c-10 4-25 10-34 13l-18 5 25-15zM550 2229c-8-10-19-19-25-19h-10l-1-25c-1-14 0-25 1-25 2 0 17 18 34 39l32 40-9 5-8 5-14-20zm-85-39-6-10h10c6 0 11-4 11-9s-6-9-12-8c-7 0-20-1-30-1l-16-2 5-20 6-21-22-23-21-22 7-8 7-7-18 7-19 7 5-27 5-27-13 5-14 5-1-14c-2-22-3-26-22-69-9-21-17-47-17-57v-19h-31l6-9 5-10-8-5-9-6 5-26 5-27-10 6-10 6-1-12c-4-47-13-107-24-160l-12-62v-105c0-58 4-123 7-145 4-22 11-70 16-106 4-37 12-72 16-79s10-27 11-43c2-17 11-41 19-53 8-13 15-32 15-43s7-26 15-35c8-8 15-19 15-25s9-28 20-48c11-21 20-43 20-50s5-13 10-13c6 0 10-4 10-9 0-13 105-159 133-185 12-12 33-34 45-51 13-16 26-29 28-28 2 2 34-26 71-62l68-65h35v-28l48-23c26-12 50-27 53-31 3-5 15-10 27-11 11 0 19-4 16-8-2-4 16-12 40-18 25-6 52-18 60-27 9-8 16-12 16-8 0 3 6 2 13-4 14-12 76-27 95-23 8 1 22-5 32-14l19-17 10 7 11 6v-20l33 1c17 0 46-2 62-5 17-2 66-8 111-12l80-8 105 13c57 6 120 13 140 15 51 5 144 33 218 66 35 16 68 29 74 29 19 0 199 113 270 170 92 73 179 168 244 267l35 51 51 17c152 50 217 117 217 223v35l-24 41c-39 67-98 110-217 162-46 19-95 37-109 40-14 2-81 17-150 34-117 28-374 70-430 71-14 0-46 1-72 3l-48 4v-8c0-4 21-11 48-15 65-9 281-52 336-66l46-11 1-17c1-9 0-20-1-26-1-5-4-17-5-25-2-8-4-15-5-15s-3-7-5-15c-1-8-15-41-29-73l-27-58-42-18c-23-9-73-26-111-36l-69-18-12 16c-7 10-19 17-28 17-8 0-17 3-20 8-2 4-2 1 0-7l3-14-32 7-33 6 15-10 15-10h-19c-10 0-33-9-50-19l-31-20-108 2-108 2-8 13c-4 8-14 13-22 12s-24-2-37-1l-23 1 5 8 5 9-54-2-54-1 5 8 5 8h-20c-11 0-56 13-100 28l-80 29-25-3-25-3 6 17 7 17-19-15-19-15 8 13 7 12h-35c-20 0-39 1-43 2-14 2-32 32-33 51v18l-10-6-10-6v10c0 6-7 11-15 11s-15 4-15 9-7 12-16 15l-16 6 6-15 5-15h-9c-6 0-10 7-10 15s-4 15-10 15c-5 0-19 9-29 19l-19 19 6 7 6 6-14-5-15-6-42 39c-23 21-44 37-46 34-3-2-4-16-2-31s6-50 9-78c21-180 95-324 248-481l60-62 25 10c71 27 173-24 173-85v-16h-23c-13 0-27 4-33 9-5 6-27 12-49 15-51 6-75 15-75 29 0 6-2 8-5 5-3-2 0-19 6-36l11-31 43-21 44-21 31-1 30-1 19 17 19 17 20-12 20-13 1-109 1-109-27 6c-16 3-55 8-88 12s-71 12-85 19-40 15-59 19c-49 9-212 91-284 143-74 53-232 213-276 279-80 118-148 287-182 449l-13 60v260l13 65c23 124 128 400 151 400 5 0 11 14 15 31l7 30 14 6c8 3 14 10 14 16v11l-12-12c-7-7-16-12-20-12h-8l14 23 14 22-13 12-14 13-6-10zm-13-52-12-12v10c0 14 12 26 19 19 2-3-1-11-7-17zm-12-58c0-5-4-10-10-10-5 0-10 5-10 10 0 6 5 10 10 10 6 0 10-4 10-10zm375-810 6-10h-10c-6 0-11 5-11 10 0 6 2 10 4 10 3 0 8-4 11-10zm173-135c-3-3-9 2-12 12l-7 18 12-12c7-7 10-15 7-18zm-26-25-4-30 16-25c9-13 30-32 47-41l31-16 34 7c45 8 43-2-2-21l-37-15-23 5c-12 3-36 18-53 32l-31 26v47c0 26 3 51 7 54 14 14 19 6 15-23zm375-192c10-11 30-26 45-34l27-14h35c19 0 47 5 63 11l28 10-24-25-24-25-28-6-29-7-29 7-28 6-32 31-31 30 5 8c3 5 1 11-5 15l-10 6 1 32 1 32 8-29c5-15 17-37 27-48zm556-15c-11-27-89-27-111 0l-10 12h126l-5-12zm141-199c20-20 20-25-1-17l-16 6 6-10 7-11-104-71c-58-39-110-71-116-71s-15 11-21 24l-11 24 18 39 19 38 49 33 48 32h107l15-16zm17-142c-20-38-100-82-149-82h-16l10 9c5 5 25 14 45 20s54 25 75 41c46 35 48 35 35 12zm-644-18c-3-3-12-4-19-1l-13 5 19 1c11 1 17-2 13-5zm180-40 22-6 7-20 6-20-13-9c-8-5-27-9-42-9s-38-6-50-14c-12-7-37-16-55-20l-33-6-5 14-6 14 17 25c29 45 94 66 152 51zm17-107c-7-19-38-35-80-41l-39-6 25 11c14 6 41 19 60 29s36 18 37 19 0-5-3-12zM581 1773l-1-23h-31l6-10 7-11-16-24-16-24 14 5c8 3 22 21 31 40l16 35-4 17-5 17-1-22zm833-268c-3-14-12-29-20-33l-14-8-59 6-59 6-26-22-25-22-21 5-22 6-11 24-10 23-21 5c-32 6-60 3-73-8l-13-9v10c0 5-7 12-15 16l-15 6 10-20 11-20h30l-5-9-5-8 24-11c14-7 25-16 25-22v-11l10 6 10 6v-22l9 6 10 5 5-9c7-11 92-39 157-51l50-10 22-24 22-25 55-6c30-4 73-11 95-16 22-4 52-9 67-9h27l-48 45-48 44v80c-1 44-4 85-8 91l-6 10h-109l-6-25zm137-31 1-19 5 13c3 7 2 16-1 19-3 4-6-2-5-13zm137-61c7-3 16-2 19 1 4 3-2 6-13 5l-19-1 13-5zm60 0c7-3 16-2 19 1 4 3-2 6-13 5l-19-1 13-5zM461 1075l-1-30 20-25 19-25 8 8 7 8-12 8c-8 4-20 26-27 47l-14 39v-30zm472-580 28-25 32 1 32 1-13 5-12 5 5 9 6 9-14-6-14-5-16 15-16 16h-23l-23-1 28-24z"/></g><g fill="#17dbaf" transform="matrix(.1 0 0 -.1 0 300)"><path d="m1985 2370-6-10h10c6 0 11 5 11 10 0 6-2 10-4 10-3 0-8-4-11-10zm57-7 4-18 17 3 17 3v-11c0-5-5-10-11-10h-11l6-25 6-24-14 5-13 5 4-25c3-14 9-26 14-26s9-7 9-15v-15h-23l7-40 6-40h-19l14-41 15-41-16 6-17 6 14-17 14-17-17 7-18 6v-7c0-4 10-12 22-17l23-10 4-20c2-11 12-31 22-44l19-24v43h-10c-5 0-10 5-10 11v10l9-5 9-6-5 22c-4 13-11 30-17 40l-12 16 7 78c3 43 4 97 1 121l-5 43h10c5 0 15-6 22-12l14-13-6 18-7 18 25-18 24-18 2-30c0-16 3-92 5-169l3-138-14-14c-7-8-15-14-17-14s0 50 4 112l8 112-10 10-10 10-1-29c0-17-4-72-7-123l-7-92h8c4 0 7-7 7-16v-15l19 6 19 6 6-17 6-17-9-11-10-12 18-13 18-13-4-27-4-26 18 20 18 20 21-3 22-3 16 16 16 16 10-6 10-6v24l6-6 7-6 25 19c13 11 32 20 41 20 10 0 22 5 28 11s19 12 29 14l19 3-2 10-3 11 15-5 15-6v24l14-5 13-5 29 17c16 9 48 23 72 31 47 15 51 23 22 47l-20 17v46h-21l6 10 6 10h-8c-5 0-17 16-28 36s-30 43-42 51l-23 15v38h-11c-5 0-8 4-5 8 2 4-4 13-15 20l-19 12v-8c0-4 5-13 12-20l12-12h-24v-26c0-14 5-34 11-45l10-20-10-12-9-12-3-66-2-66 7-12 8-13-21-19-21-20-9 23c-5 13-36 64-70 115l-61 91-73 74c-79 81-127 123-170 151l-29 19 4-19zm465-185 2-23-9 15c-12 18-13 30-2 30 4 0 9-10 9-22zm28-18 6-10h-10c-6 0-11 5-11 10 0 6 2 10 4 10 3 0 8-4 11-10zm-338-112-5-13v50l5-12c2-7 2-19 0-25zm237 247c11-8 24-15 30-15 5 0 1 7-10 15-10 8-23 14-29 14-5 0-1-6 9-14zm-1884-66c-8-10-19-19-25-19h-10l-1-25c-1-14 0-25 1-25 2 0 17 18 34 39l32 40-9 5-8 5-14-20zm-85-39-6-10h10c6 0 11-4 11-9s-6-9-12-8c-7 0-20-1-30-1l-16-2 5-20 6-21-22-23-21-22 7-8 7-7-18 7-19 7 5-27 5-27-13 5-14 5-1-14c-2-22-3-26-22-69-9-21-17-47-17-57v-19h-31l6-9 5-10-8-5-9-6 5-26 5-27-10 6-10 6-1-12c-4-47-13-107-24-160l-12-62v-105c0-58 4-123 7-145 4-22 11-70 16-106 4-37 12-72 16-79s10-27 11-43c2-17 11-41 19-53 8-13 15-32 15-43s7-26 15-35c8-8 15-19 15-25s9-28 20-48c11-21 20-43 20-50s5-13 10-13c6 0 10-4 10-9 0-13 105-159 133-185 12-12 33-34 45-51 13-16 26-29 28-28 2 2 34-26 71-62l68-65h35v-28l48-23c26-12 50-27 53-31 3-5 15-10 27-11 11 0 19-4 16-8-2-4 16-12 40-18 25-6 50-17 58-24l13-14 13 5 12 4v-21l48-6c26-3 55-10 65-16l18-10 9 6 10 6 5-14 6-13 29 4 30 4-10 18c-5 10-8 32-7 49l2 31 19 6 18 6 8-12 7-12 6 16 6 15-37 6c-175 29-395 119-532 218-68 49-227 210-269 273-80 118-148 287-182 449l-13 60v260l13 65c23 124 128 400 151 400 5 0 11 14 15 31l7 30 14 6c8 3 14 10 14 16v11l-12-12c-7-7-16-12-20-12h-8l14 23 14 22-13 12-14 13-6-10zm-13-52-12-12v10c0 14 12 26 19 19 2-3-1-11-7-17zm-12-58c0-5-4-10-10-10-5 0-10 5-10 10 0 6 5 10 10 10 6 0 10-4 10-10zm787-1766c-3-3-12-4-19-1l-13 5 19 1c11 1 17-2 13-5zm1313 1876c0-5 5-10 11-10h10l-6 10c-3 6-8 10-11 10-2 0-4-4-4-10zm-610-79c0-10 19-25 25-20 1 2-3 10-11 17l-14 13v-10zm65-61c3-5 8-10 11-10 2 0 4 5 4 10 0 6-5 10-11 10h-10l6-10zm105 1c0-6 5-13 10-16l10-6v15c0 9-4 16-10 16-5 0-10-4-10-9zm-50-56c7-9 15-13 17-11 7 7-7 26-19 26h-10l12-15zm110-145c0-5 5-10 10-10 6 0 10 5 10 10 0 6-4 10-10 10-5 0-10-4-10-10zm-1140-360 11-20h30l-5-9-5-8 24-11c14-7 25-16 25-22v-11l10 6 10 6v-22l9 6 10 5 5-9c7-11 92-39 157-51l50-10 22-24 22-25 55-6c30-3 73-10 95-15s51-10 65-10h24l-45 48c-26 26-49 55-52 64l-6 17 9 6c6 4 10 12 10 19v14l-27 10c-16 6-53 13-83 17-30 3-83 10-116 14l-62 7-26-22-25-22-21 5-22 6-11 24-10 23-21 5c-32 6-60 3-73-8l-13-9v10c0 5-7 12-15 16l-15 6 10-20zm668-77c7-3 16-2 19 1 4 3-2 6-13 5l-19-1 13-5zm156-8c11-8 28-15 38-15 21 0 265-46 321-61l37-10 1-17v-17l9 20 9 20v-17c1-9-3-19-8-22s-12-26-15-50l-7-44-14-12c-8-7-15-21-15-31 0-11-4-19-9-19s-12-11-15-24l-6-24-72-22c-40-12-83-25-96-31-13-5-31-9-40-9h-17l-3-37-2-37-15-23c-8-12-29-30-46-38l-30-16-29 6c-34 8-59 29-83 73l-18 32 8 2c4 0-21 4-57 8-36 3-73 4-82 2l-17-4-6-29c-4-16-5-30-4-31 2-2-5-16-15-33l-18-30-34-17-35-18h-66l-29 22c-16 13-36 29-44 37l-14 14-1 61c0 33 2 67 5 74l5 14-77 27c-43 16-80 26-83 23s-5-20-5-38v-32l-30-25c-16-14-43-28-59-32l-30-6-23 12c-13 6-33 21-45 32l-23 20v94l25 23c14 13 25 30 25 37v14l-10-6-10-6v10c0 6-7 11-15 11s-15 4-15 9-7 12-16 15l-16 6 6-15 5-15h-9c-6 0-10 7-10 15s-4 15-10 15-19 9-29 19l-19 19 6 7 6 6-14-5-15-6-42 39c-23 21-44 37-46 34-3-2-4-16-2-31s6-50 9-78c21-180 95-324 248-481l60-62 25 10c37 14 70 11 112-10l38-20 16-25c10-14 17-33 17-43v-18l80-19 80-19 37 8c47 10 115 10 170 0l42-7 24 6 24 6 6 41 5 41 49 44c26 24 57 47 68 50 11 4 27 13 36 21l17 14 41-4c22-2 44-6 47-10l7-7 23 6 24 6 7-18 7-18-11-3-11-4 24-24 24-24v-36l-31-32-30-33h-37l-7-17-6-18 12 13c15 14 29 16 29 3 0-5-16-15-35-21s-35-16-35-22v-9l43 24 42 23-2 12-3 12h30v30h15c8 0 15-3 15-6 0-10-22-48-39-67-8-11-16-24-17-30 0-7-2-17-2-23-1-6-14-16-28-23l-26-12-20 7-21 6 7-11 7-11h-21v-31l-20 6-20 6-61-18-61-18-7-15c-4-8-5-41-3-72l4-58h86l4 12 5 13 47 1 48 2 22 12 23 12-4 21c-4 27 6 42 35 51l22 7v-23c0-13 5-30 10-38l10-15v23l58 29c31 15 67 39 78 52l22 24 11-7 11-7v22l10-6 10-6 6 14c3 8 15 17 26 20l20 6-6 10-7 10 25 7 25 6 55 61c87 97 94 105 88 111-3 3 0 6 6 6s30 27 53 60l41 59 64 21c36 12 86 36 112 53l47 32 23 45 22 44v79l-22 36c-22 37-96 111-111 111-5 0-15 7-24 15l-15 15-9-5-9-6v8c0 10-58 33-83 33h-17v22l-15-6-15-5v7c0 4-8 8-17 9-10 0-58 12-108 26-138 38-263 61-386 71-20 2-42 7-48 10l-11 7-44-6-44-7-6 11c-4 6-17 11-29 11l-22-1 19-14zM815 1270l6-10h-10c-6 0-11 5-11 10 0 6 2 10 4 10 3 0 8-4 11-10zm1322-216c-3-3-12-4-19-1l-13 5 19 1c11 1 17-2 13-5zm24-382-11-4v-21c0-12-7-30-14-39l-13-18-8 8-8 7 6-18 7-19-12 5-13 4 3 55 4 56-11 21-11 21 14-6 14-5 6 25 6 26h31l7 18 7 17 3-65 3-65-10-3zm-83-147c-1-1-13-6-25-9l-23-7 23 25 22 25 3-15c2-9 2-17 0-19zm20-117-3-13 13 3 12 2v-30l-20 12c-21 13-27 38-10 38 6 0 9-6 8-12zm82-2c0-8-4-18-10-21l-10-6v41h10c6 0 10-6 10-14zm-268-80c4-40 0-56-14-56h-10l12 15 12 15h-10c-6 0-14-5-17-10-4-6-14-10-23-8-10 1-23-1-29-5l-13-8v10c0 6 5 11 10 11h10v88l13 5c6 2 22-2 33-10l22-14 4-33zm163 24 6-10h-10c-5 0-13 5-16 10l-6 10h10c5 0 13-4 16-10zm-120-68c-3-3-11 0-18 7l-12 12 18-7c10-3 15-9 12-12zm-35 707v-10l-12 7-13 7 8-8 7-9-37-14c-21-8-48-15-60-16-35-4-36-12-4-26l29-12 34 16 34 16 18 30 17 30h-10c-6 0-11-5-11-11zm-590-42c0-15 34-49 67-66 30-15 59-14 99 5l34 16v30l-31-7-32-7 7 11 7 11-18 1c-10 1-34 2-53 3s-45 5-57 9l-23 8v-14zm658-454c7-3 16-2 19 1 4 3-2 6-13 5l-19-1 13-5zm-33-13-6-10h10c6 0 11 5 11 10 0 6-2 10-4 10-3 0-8-4-11-10zm-292-122c-12-6-24-17-28-25l-5-15 14 5 14 6 5-20 6-21 23 4 23 3v70l-15 2c-8 1-25-3-37-9zm-87-37c-4-5-23-12-45-16l-38-6 5-25 4-24h28v-30h42l-6 16c-3 9-3 20 0 26l6 9 14-18 13-18 1 48v47h-9c-6 0-12-4-15-9zm-301-52-7-21 11-11 11-11v32c0 37-6 41-15 11zm588-24v-14l9 5c4 3 8 9 8 15 0 5-4 9-8 9-5 0-9-7-9-15zm-193-19c0-2 9-6 20-9l20-5v9c0 5-9 9-20 9s-20-2-20-4zm85-6-6-10h10c6 0 11 5 11 10 0 6-2 10-4 10-3 0-8-4-11-10zm35 0c0-5 5-10 10-10 6 0 10 5 10 10 0 6-4 10-10 10-5 0-10-4-10-10zm-143-11c7-7 15-10 18-7s-2 9-12 12l-18 7 12-12zm-77-9-15-10h10c6 0 17 5 25 10l15 10h-10c-5 0-17-5-25-10z"/></g><g fill="#01e896" transform="matrix(.1 0 0 -.1 0 300)"><path d="m1985 2370-6-10h10c6 0 11 5 11 10 0 6-2 10-4 10-3 0-8-4-11-10zm57-7 4-18 17 3 17 3v-11c0-5-5-10-11-10h-11l6-25 6-24-14 5-13 5 4-25c3-14 9-26 14-26s9-7 9-15v-15h-23l7-40 6-40h-19l14-41 15-41-16 6-17 6 14-17 14-17-17 7-18 6v-7c0-4 10-12 22-17l23-10 4-20c2-11 12-31 22-44l19-24v43h-10c-5 0-10 5-10 11v10l9-5 9-6-5 22c-4 13-11 30-17 40l-12 16 7 78c3 43 4 97 1 121l-5 43h10c5 0 15-6 22-12l14-13-6 18-7 18 25-18 24-18 2-30c0-16 3-92 5-169l3-138-14-14c-7-8-15-14-17-14s0 50 4 112l8 112-10 10-10 10-1-29c0-17-4-72-7-123l-7-92h8c4 0 7-7 7-16v-15l19 6 19 6 6-17 6-17-9-11-10-12 18-13 18-13-4-27-4-26 18 20 18 20 21-3 22-3 16 16 16 16 10-6 10-6v24l6-6 7-6 25 19c13 11 32 20 41 20 10 0 22 5 28 11s19 12 29 14l19 3-2 10-3 11 15-5 15-6v24l14-5 13-5 29 17c16 9 48 23 72 31 47 15 51 23 22 47l-20 17v46h-21l6 10 6 10h-8c-5 0-17 16-28 36s-30 43-42 51l-23 15v38h-11c-5 0-8 4-5 8 2 4-4 13-15 20l-19 12v-8c0-4 5-13 12-20l12-12h-24v-26c0-14 5-34 11-45l10-20-10-12-9-12-3-66-2-66 7-12 8-13-21-19-21-20-9 23c-5 13-36 64-70 115l-61 91-73 74c-79 81-127 123-170 151l-29 19 4-19zm465-185 2-23-9 15c-12 18-13 30-2 30 4 0 9-10 9-22zm28-18 6-10h-10c-6 0-11 5-11 10 0 6 2 10 4 10 3 0 8-4 11-10zm-338-112-5-13v50l5-12c2-7 2-19 0-25zm237 247c11-8 24-15 30-15 5 0 1 7-10 15-10 8-23 14-29 14-5 0-1-6 9-14zm-504-184c0-10 19-25 25-20 1 2-3 10-11 17l-14 13v-10zm65-61c3-5 8-10 11-10 2 0 4 5 4 10 0 6-5 10-11 10h-10l6-10zm105 1c0-6 5-13 10-16l10-6v15c0 9-4 16-10 16-5 0-10-4-10-9zm-50-56c7-9 15-13 17-11 7 7-7 26-19 26h-10l12-15zm110-145c0-5 5-10 10-10 6 0 10 5 10 10 0 6-4 10-10 10-5 0-10-4-10-10zm-900-396v-13l-22-7c-13-4-27-12-31-18l-9-11-5 13c-2 6-9 12-15 12h-10l5-14 6-15-15 6c-7 3-14 2-14-1 0-11 64-35 136-52l66-15 21-24 22-24 50-5c28-3 74-10 104-16 29-5 61-10 69-10h16l-47 48-48 49-1 19c0 10 2 26 6 35l7 15-26 12-26 12-67 1c-37 0-91 4-119 8l-53 7v-12zm428-41c7-3 16-2 19 1 4 3-2 6-13 5l-19-1 13-5zm156-8c11-8 28-15 38-15 21 0 265-46 321-61l37-10 1-17v-17l9 20 9 20v-17c1-9-3-19-8-22s-12-26-15-50l-7-44-14-12c-8-7-15-18-15-25 0-8-8-27-17-44l-18-32-23-6-24-6 13-7 12-8h-34c-19 0-63-9-99-19l-65-18-3-35c-4-45-25-76-63-95l-30-16-29 6c-34 7-59 29-82 71l-17 31 6 7 6 6h-161l-7-30c-4-16-5-31-4-32 2-2-6-18-16-36l-20-34-27-14-27-14h-86l-31 19-32 19-16 33-16 32v34c0 19 5 43 10 53l10 20-25 6-25 6 6 9 5 9-15-6-16-6v9c0 5-7 10-15 10h-16l5-14 5-13h-9c-5 0-12 5-15 10-3 6-13 10-22 10h-15l6-16 6-15-10 6-10 6v-38l-17-14c-28-22-61-39-78-39h-16l11-19c14-27 13-30-10-24l-20 5v-16c0-28-14-18-91 63l-75 79-35 73c-19 41-42 94-50 119l-14 45-3-28-3-27 25-90 26-89 31-58c18-32 40-67 50-79 11-11 19-25 19-30 0-6 33-44 74-85l73-75h64l64 1 37-28 36-28 16-39 15-38 75-18 75-17 56 13 57 14 44-12c50-13 104-15 120-4 6 4 14 25 17 46l6 39 48 44c26 23 57 46 68 49 11 4 27 13 36 21l17 14 41-4c22-2 44-6 47-10l7-7 23 6 24 6 7-18 7-18-11-3-11-4 24-24 24-24v-36l-31-32-30-33h-37l-7-17-6-18 12 13c15 14 29 16 29 3 0-5-16-15-35-21s-35-16-35-22v-9l43 24 42 23-2 12-3 12h30v30h15c8 0 15-3 15-6 0-10-22-48-39-67-8-11-16-24-17-30 0-7-2-17-2-23-1-6-14-16-28-23l-26-12-20 7-21 6 7-11 7-11h-21v-31l-20 6-20 6-61-18-61-18-7-15c-4-8-5-41-3-72l4-58h86l4 12 5 13 47 1 48 2 22 12 23 12-4 21c-4 27 6 42 35 51l22 7v-23c0-13 5-30 10-38l10-15v23l58 29c31 15 67 39 78 52l22 24 11-7 11-7v10c0 6 7 11 15 11s15 4 15 9 9 11 21 14l21 6-6 10-7 10 25 7 25 6 55 61c87 97 94 105 88 111-3 3 0 6 6 6s30 27 53 60l41 59 64 21c36 12 86 36 112 53l47 32 23 45 22 44v82l-32 46c-32 43-88 98-103 98-3 0-13 7-22 15l-15 15-9-5-9-6v8c0 10-58 33-83 33h-17v22l-15-6-15-5v7c0 4-8 8-17 9-10 0-58 12-108 26-138 38-263 61-386 71-20 2-42 7-48 10l-11 7-44-6-44-7-6 11c-4 6-17 11-29 11l-22-1 19-14zm317-733-11-4v-21c0-12-7-30-14-39l-13-18-8 8-8 7 6-18 7-19-12 5-13 4 3 55 4 56-11 21-11 21 14-6 14-5 6 25 6 26h31l7 18 7 17 3-65 3-65-10-3zm-83-147c-1-1-13-6-25-9l-23-7 23 25 22 25 3-15c2-9 2-17 0-19zm20-117-3-13 13 3 12 2v-30l-20 12c-21 13-27 38-10 38 6 0 9-6 8-12zm82-2c0-8-4-18-10-21l-10-6v41h10c6 0 10-6 10-14zm-268-80c4-40 0-56-14-56h-10l12 15 12 15h-10c-6 0-14-5-17-10-4-6-14-10-23-8-10 1-23-1-29-5l-13-8v10c0 6 5 11 10 11h10v88l13 5c6 2 22-2 33-10l22-14 4-33zm163 24 6-10h-10c-5 0-13 5-16 10l-6 10h10c5 0 13-4 16-10zm-120-68c-3-3-11 0-18 7l-12 12 18-7c10-3 15-9 12-12zm-35 707v-10l-12 7-13 7 8-8 7-9-37-14c-21-8-48-15-60-16-35-4-36-12-4-26l29-12 34 16 34 16 18 30 17 30h-10c-6 0-11-5-11-11zm-590-42c0-15 34-49 67-66 30-15 59-14 99 5l34 16v30l-31-7-32-7 7 11 7 11-18 1c-10 1-34 2-53 3s-45 5-57 9l-23 8v-14zm658-454c7-3 16-2 19 1 4 3-2 6-13 5l-19-1 13-5zm-33-13-6-10h10c6 0 11 5 11 10 0 6-2 10-4 10-3 0-8-4-11-10zm-292-122c-12-6-24-17-28-25l-5-15 14 5 14 6 5-20 6-21 23 4 23 3v70l-15 2c-8 1-25-3-37-9zm-696-9c7-7 15-10 18-7s-2 9-12 12l-18 7 12-12zm609-28c-4-5-23-12-45-16l-38-6 5-25 4-24h28v-30h42l-6 16c-3 9-3 20 0 26l6 9 14-18 13-18 1 48v47h-9c-6 0-12-4-15-9zm287-76v-14l9 5c4 3 8 9 8 15 0 5-4 9-8 9-5 0-9-7-9-15zm-193-19c0-2 9-6 20-9l20-5v9c0 5-9 9-20 9s-20-2-20-4zm85-6-6-10h10c6 0 11 5 11 10 0 6-2 10-4 10-3 0-8-4-11-10zm35 0c0-5 5-10 10-10 6 0 10 5 10 10 0 6-4 10-10 10-5 0-10-4-10-10zm-143-11c7-7 15-10 18-7s-2 9-12 12l-18 7 12-12zm-77-9-15-10h10c6 0 17 5 25 10l15 10h-10c-5 0-17-5-25-10z"/></g><g fill="#0bd399" transform="matrix(.1 0 0 -.1 0 300)"><path d="M1260 1453v-12l-22-7c-13-4-27-12-31-18l-9-11-5 13c-2 6-9 12-15 12h-10l5-14 6-15-16 6-16 6 7-11c8-14 128-52 162-52h23l28-29 28-30 60-6c88-10 107-12 138-19l28-7-10 19c-5 10-18 25-28 33l-18 14 15-20 15-20-22 19-23 19 6 8 5 9-15 6-15 6 1 34 1 33 9-5 8-5v19l-42 7c-24 4-89 13-145 19l-103 12v-13zm-510-198c-1-76 79-282 131-341 11-11 19-25 19-30 0-6 33-44 74-85l73-75h64l64 1 37-28 36-28 15-38 16-38 65-17c36-9 79-16 95-16h30l6 10c4 6 10 8 15 5 4-3 13 1 19 9l12 14 39-5 40-6v30l25 13 25 14-5 16-5 16 30 22c16 12 33 22 37 22s43 14 85 31l78 31 44 39c24 21 49 39 55 39s11 6 11 13 10 21 21 31l21 18-11 11c-13 13-15 31-3 23 9-6 42 29 42 44 0 6-4 10-10 10-5 0-10-7-10-15v-15l-32-1c-18-1-36-1-40 0-5 0-8-7-8-17 0-26-27-60-62-78l-30-16-34 7-34 6-26 26c-14 14-30 38-36 53l-9 27-75 2-74 2v-53l-22-40-23-40-27-14-27-14h-86l-31 19-32 19-16 33-16 32v34c0 19 5 43 10 53l10 20-25 6-25 6 6 9 5 9-15-6-16-6v9c0 5-7 10-15 10h-16l5-14 5-13h-9c-5 0-12 5-15 10-3 6-13 10-22 10h-15l6-16 6-15-10 6-10 6v-38l-17-14c-28-22-61-39-78-39h-16l11-19c14-27 13-30-10-24l-20 5v-16c0-28-14-18-91 63l-75 79-37 76c-20 42-37 80-37 85s-7 24-15 42l-14 34-1-30zm843-572c-7-2-19-2-25 0l-13 5h50l-12-5zm372 326c-4-6-5-12-2-15 7-7 37 7 37 17 0 13-27 11-35-2zm-330-439c3-5 8-10 11-10 2 0 4 5 4 10 0 6-5 10-11 10h-10l6-10zM967 349c7-7 15-10 18-7s-2 9-12 12l-18 7 12-12z"/></g></g></svg>