<?xml version="1.0" encoding="utf-8"?><svg xml:space="preserve" viewBox="0 0 100 100" y="0" x="0" xmlns="http://www.w3.org/2000/svg" id="圖層_1" version="1.1" width="128px" height="128px" xmlns:xlink="http://www.w3.org/1999/xlink" style="width:100%;height:100%;background-size:initial;background-repeat-y:initial;background-repeat-x:initial;background-position-y:initial;background-position-x:initial;background-origin:initial;background-color:initial;background-clip:initial;background-attachment:initial;animation-play-state:paused" ><g class="ldl-scale" style="transform-origin:50% 50%;transform:rotate(0deg) scale(0.8, 0.8);animation-play-state:paused" ><g style="animation-play-state:paused" ><path fill="#e0e0e0" d="M60.359 61.779V33.866c0-7.516-6.114-13.63-13.63-13.63s-13.63 6.115-13.63 13.63V61.78H21.114V33.866c0-14.125 11.491-25.616 25.616-25.616s25.615 11.491 25.615 25.616V61.78H60.359z" style="fill:rgb(224, 224, 224);animation-play-state:paused" ></path>
<path fill="#333" d="M46.729 10c13.16 0 23.866 10.706 23.866 23.866V60.03h-8.486V33.866c0-8.48-6.9-15.38-15.38-15.38s-15.38 6.9-15.38 15.38V60.03h-8.486V33.866C22.864 20.706 33.57 10 46.729 10m0-3.5c-15.089 0-27.366 12.276-27.366 27.366V63.53h15.486V33.866c0-6.551 5.329-11.88 11.88-11.88 6.551 0 11.88 5.329 11.88 11.88V63.53h15.486V33.866c0-15.09-12.276-27.366-27.366-27.366z" style="fill:rgb(51, 51, 51);animation-play-state:paused" ></path></g>
<g opacity=".2" style="animation-play-state:paused" ><g style="animation-play-state:paused" ><path d="M42.487 18.486c-8.48 0-15.38 6.9-15.38 15.38V60.03h4.243V33.866c0-7.759 5.781-14.177 13.259-15.216a15.326 15.326 0 0 0-2.122-.164z" style="animation-play-state:paused" ></path></g>
<g style="animation-play-state:paused" ><path d="M46.729 10c-.715 0-1.422.037-2.121.099 12.169 1.078 21.744 11.322 21.744 23.766v26.164h4.243V33.866C70.595 20.706 59.889 10 46.729 10z" style="animation-play-state:paused" ></path></g></g>
<path stroke-miterlimit="10" stroke-width="3.5" stroke="#333" fill="#f8b26a" d="M74.661 88.144H18.798a4.773 4.773 0 0 1-4.773-4.773V49.245a4.773 4.773 0 0 1 4.773-4.773h55.863a4.773 4.773 0 0 1 4.773 4.773v34.126a4.773 4.773 0 0 1-4.773 4.773z" style="stroke:rgb(51, 51, 51);fill:rgb(248, 178, 106);animation-play-state:paused" ></path>
<path d="M20.212 68.869v1.856" stroke-linecap="round" stroke="#fff" fill="none" stroke-miterlimit="10" stroke-width="3.5" style="stroke:rgb(255, 255, 255);animation-play-state:paused" ></path>
<path d="M20.212 51.367v10.474" stroke-linecap="round" stroke="#fff" fill="none" stroke-miterlimit="10" stroke-width="3.5" style="stroke:rgb(255, 255, 255);animation-play-state:paused" ></path>
<path fill="#666" d="M82.151 59.72H67.944a3.824 3.824 0 1 1 0-7.648h14.207a3.824 3.824 0 1 1 0 7.648z" style="fill:rgb(102, 102, 102);animation-play-state:paused" ></path>
<path fill="#666" d="M82.151 70.327H67.944a3.824 3.824 0 1 1 0-7.648h14.207a3.824 3.824 0 1 1 0 7.648z" style="fill:rgb(102, 102, 102);animation-play-state:paused" ></path>
<path fill="#666" d="M82.151 80.934H67.944a3.824 3.824 0 1 1 0-7.648h14.207a3.824 3.824 0 1 1 0 7.648z" style="fill:rgb(102, 102, 102);animation-play-state:paused" ></path>
<path opacity=".2" d="M82.151 70.327a3.824 3.824 0 1 0 0-7.648h-.861V59.72h.861a3.824 3.824 0 1 0 0-7.648h-.861v-2.827a6.637 6.637 0 0 0-6.629-6.629H44.873V90H74.66a6.637 6.637 0 0 0 6.629-6.629v-2.437h.861a3.824 3.824 0 1 0 0-7.648h-.86v-2.959h.861z" style="animation-play-state:paused" ></path>
<metadata xmlns:d="https://loading.io/stock/" style="animation-play-state:paused" ><d:name style="animation-play-state:paused" >lock</d:name>


<d:tags style="animation-play-state:paused" >lock,security,secret,protect,guard,safe,privacy,key,door,gate,number lock</d:tags>


<d:license style="animation-play-state:paused" >by</d:license>


<d:slug style="animation-play-state:paused" >uj3545</d:slug></metadata></g><!-- generated by https://loading.io/ --></svg>